<svg width="110" height="595" viewBox="0 0 110 595" fill="none" xmlns="http://www.w3.org/2000/svg">
<rect width="110" height="452" fill="#F38C28"/>
<path d="M39.368 538.036L110 564.414L110 566.376L39.368 592.536L110 592.536L110 594.498L33.7 594.498L33.7 592.536L106.73 565.286L33.7 538.036L33.7 536.074L110 536.074L110 538.036L39.368 538.036ZM108.801 484.48C108.728 484.262 108.365 483.209 107.711 481.319C107.057 479.43 105.495 477.831 103.024 476.523C100.553 475.215 97.356 474.561 93.432 474.561L72.722 474.561C76.5733 476.741 79.2983 479.902 80.897 484.044C82.4957 488.186 83.295 492.11 83.295 495.816C83.295 503.519 81.4057 509.623 77.627 514.128C73.7757 518.561 68.1077 520.777 60.623 520.777L33.7 520.777L33.7 518.706L60.078 518.706C66.836 518.706 72.068 516.817 75.774 513.038C79.4073 509.26 81.224 503.519 81.224 495.816C81.224 490.003 79.7707 485.171 76.864 481.319C73.8847 477.468 70.215 475.215 65.855 474.561L33.7 474.561L33.7 472.49L94.086 472.49C98.7367 472.49 102.443 473.399 105.204 475.215C107.893 476.959 109.746 479.83 110.763 483.826L108.801 484.48ZM33.591 428.763L33.591 408.271C33.591 400.059 35.8437 393.81 40.349 389.523C44.8543 385.163 50.8493 382.983 58.334 382.983L88.2 382.983C102.733 382.983 110 390.685 110 406.091L110 428.763L33.591 428.763ZM58.988 385.054C51.2127 385.054 45.4357 387.197 41.657 391.485C37.8057 395.699 35.88 400.931 35.88 407.181L35.88 426.692L107.82 426.692L107.82 407.181C107.82 403.329 107.42 399.878 106.621 396.826C105.749 393.701 103.787 390.976 100.735 388.651C97.6103 386.253 92.9233 385.054 86.674 385.054L58.988 385.054ZM33.7 371.176L33.7 334.77L35.771 334.77L35.771 369.105L64.983 369.105L64.983 344.253L67.054 345.016L67.054 369.105L107.929 369.105L107.929 334.988L110 334.988L110 371.176L33.7 371.176ZM90.598 322.579C93.3593 322.579 96.1933 321.743 99.1 320.072C102.007 318.328 104.441 315.712 106.403 312.224C108.292 308.663 109.237 304.376 109.237 299.362C109.237 292.24 107.675 286.5 104.55 282.14C101.425 277.707 96.4477 275.491 89.617 275.491C86.0563 275.491 83.1133 276.581 80.788 278.761C78.39 280.868 76.5006 283.52 75.12 286.718C73.6667 289.842 72.1043 294.021 70.433 299.253C68.7617 304.485 67.2357 308.699 65.855 311.897C64.4017 315.021 62.5123 317.674 60.187 319.854C57.8617 321.961 54.9187 323.015 51.358 323.015C48.1607 323.015 45.145 322.106 42.311 320.29C39.4043 318.473 37.079 315.748 35.335 312.115C33.5183 308.409 32.61 303.867 32.61 298.49C32.61 294.929 32.8643 291.986 33.373 289.661C33.8816 287.335 34.7173 284.974 35.88 282.576L38.06 283.448C36.97 285.482 36.1343 287.88 35.553 290.642C34.9716 293.33 34.681 295.874 34.681 298.272C34.681 304.666 36.1706 310.007 39.15 314.295C42.1293 318.582 46.3077 320.726 51.685 320.726C54.6643 320.726 57.1713 319.745 59.206 317.783C61.168 315.821 62.803 313.423 64.111 310.589C65.3463 307.682 66.7633 303.722 68.362 298.708C70.2513 293.04 71.959 288.571 73.485 285.301C75.011 281.958 77.082 279.124 79.698 276.799C82.314 274.401 85.6203 273.202 89.617 273.202C96.2297 273.202 101.498 275.309 105.422 279.524C109.273 283.738 111.199 290.315 111.199 299.253C111.199 304.63 110.218 309.244 108.256 313.096C106.221 316.874 103.642 319.781 100.517 321.816C97.3197 323.778 94.0133 324.831 90.598 324.977L90.598 322.579ZM35.989 255.266L35.771 264.64L33.7 264.64L33.7 253.195L110 253.195L110 255.266L35.989 255.266ZM100.408 197.021C107.529 200.364 111.09 206.94 111.09 216.75C111.09 220.819 110.327 224.598 108.801 228.086C107.275 231.574 104.877 234.408 101.607 236.588C98.337 238.695 94.2676 239.749 89.399 239.749L55.173 239.749C50.0863 239.749 46.017 238.95 42.965 237.351C39.8403 235.68 37.3333 233.318 35.444 230.266C33.6273 227.069 32.719 223.145 32.719 218.494C32.719 212.826 33.918 207.703 36.316 203.125L38.169 203.888C37.079 206.504 36.2433 208.866 35.662 210.973C35.008 213.08 34.681 215.478 34.681 218.167C34.681 223.326 36.1706 227.868 39.15 231.792C42.0566 235.716 47.6156 237.678 55.827 237.678L89.617 237.678C93.323 237.678 96.6656 236.842 99.645 235.171C102.552 233.5 104.841 231.065 106.512 227.868C108.183 224.671 109.019 220.928 109.019 216.641C109.019 209.665 107.202 204.651 103.569 201.599C99.9356 198.547 95.4666 197.021 90.162 197.021L79.371 197.021L79.371 209.12L77.3 209.992L77.3 194.95L110 194.95L110 197.021L100.408 197.021ZM36.97 177.825L110 177.825L110 179.787L33.7 179.787L33.7 177.825L106.512 128.012L33.7 128.012L33.7 126.159L110 126.159L110 128.012L36.97 177.825ZM33.7 108.894L33.7 72.4885L35.771 72.4885L35.771 106.823L64.983 106.823L64.983 81.9715L67.054 82.7345L67.054 106.823L107.929 106.823L107.929 72.7065L110 72.7065L110 108.894L33.7 108.894ZM79.153 27.8155L79.371 30.5405L79.371 56.0465L110 56.0465L110 58.2265L33.7 58.2265L33.7 32.1755C33.7 24.9815 35.8073 19.6405 40.022 16.1525C44.2366 12.6645 49.9046 10.9205 57.026 10.9205C61.4586 10.9205 65.7823 12.0105 69.997 14.1905C74.2116 16.2978 77.1183 20.1492 78.717 25.7445L110 10.8115L110 13.1005L79.153 27.8155ZM77.3 32.2845C77.3 25.6718 75.3016 20.8395 71.305 17.7875C67.3083 14.6628 62.5486 13.1005 57.026 13.1005C50.3406 13.1005 45.145 14.7355 41.439 18.0055C37.733 21.2028 35.88 25.9625 35.88 32.2845L35.88 56.0465L77.3 56.0465L77.3 32.2845Z" fill="#513834" fill-opacity="0.2"/>
</svg>
